# xmcd
#
# Track frame offsets:
#	150
#	16131
#	31970
#	47177
#	66348
#	83041
#	101123
#	114085
#	129306
#	146731
#	163632
#	178044
#	192882
#	207562
#	221711
#	241219
#	254261
#	268733
#	281106
#	297085
#
# Disc length: 4174 seconds
#
# Revision: 1
# Processed by: cddbd v1.5.2PL0 Copyright (c) Steve Scherf et al.
# Submitted via: audiograbber 1.83.01
#
DISCID=2e104c14
DTITLE=Odair Jose - 20 Super Sucessos
DYEAR=1985
DGENRE=Brega
TTITLE0=A Noite Mais Linda do Mundo (A Felicidade)
TTITLE1=Cade Você
TTITLE2=Planta sem raiz
TTITLE3=Esta Noite Voce Vai Ter Que Ser Minha
TTITLE4=Deixe Essa Vergonha de Lado
TTITLE5=Eu, você e a praça
TTITLE6=Mande nem que seja um telegrama
TTITLE7=Que saudade de você
TTITLE8=Não tem jeito
TTITLE9=Uma vida só
TTITLE10=Eu tenho
TTITLE11=O amanhã espera por nós dois
TTITLE12=Você nasceu pra mim
TTITLE13=Eu sinto pena e nada mais
TTITLE14=Na minha opnião (eu te quero,te adoro, te gosto)
TTITLE15=Mentira nunca mais vai ser verdade
TTITLE16=Vou tirar você deste lugar
TTITLE17=E ninguem liga pra mim
TTITLE18=Minhas coisas
TTITLE19=Meu caminho até você
EXTD=
EXTT0=
EXTT1=
EXTT2=
EXTT3=
EXTT4=
EXTT5=
EXTT6=
EXTT7=
EXTT8=
EXTT9=
EXTT10=
EXTT11=
EXTT12=
EXTT13=
EXTT14=
EXTT15=
EXTT16=
EXTT17=
EXTT18=
EXTT19=
PLAYORDER=
